<?xml version="1.0" standalone="no"?>
<!DOCTYPE svg PUBLIC "-//W3C//DTD SVG 20010904//EN"
 "http://www.w3.org/TR/2001/REC-SVG-20010904/DTD/svg10.dtd">
<svg version="1.0" xmlns="http://www.w3.org/2000/svg"
 width="1116.000000pt" height="1280.000000pt" viewBox="0 0 1116.000000 1280.000000"
 preserveAspectRatio="xMidYMid meet">
<metadata>
Created by potrace 1.15, written by Peter Selinger 2001-2017
</metadata>
<g transform="translate(0.000000,1280.000000) scale(0.100000,-0.100000)"
fill="#000000" stroke="none">
<path d="M5708 12790 c-20 -5 -67 -26 -105 -46 l-68 -36 -173 6 c-161 7 -175
6 -205 -13 -41 -25 -95 -39 -199 -52 -131 -16 -184 -34 -237 -84 -79 -74 -88
-75 -246 -23 -108 36 -141 34 -275 -17 -137 -52 -266 -118 -335 -170 -33 -26
-118 -81 -189 -123 -164 -97 -229 -159 -252 -239 -20 -73 -57 -139 -138 -250
-92 -127 -99 -144 -92 -217 7 -68 -4 -121 -54 -260 -31 -88 -32 -90 -36 -321
-5 -253 -3 -269 49 -323 l31 -32 -1 -282 -2 -282 34 -37 c52 -58 57 -93 49
-324 l-7 -203 26 -44 c14 -25 33 -51 42 -58 14 -12 16 -27 10 -99 -17 -228 55
-492 169 -618 49 -54 115 -93 158 -93 25 0 26 -1 32 -107 12 -188 46 -541 71
-742 l25 -194 98 -116 c54 -64 101 -121 105 -128 6 -10 44 -531 49 -684 2 -54
-3 -75 -25 -120 -47 -95 -152 -211 -272 -301 -67 -51 -92 -79 -157 -176 -108
-159 -149 -204 -285 -314 -422 -341 -931 -561 -1843 -798 -442 -115 -644 -206
-1218 -547 l-244 -145 7 -987 c11 -1731 24 -3163 27 -3165 6 -5 11090 -26
11098 -21 4 2 10 548 14 1212 3 664 9 1602 12 2083 l7 875 -59 29 c-108 52
-299 183 -705 487 -133 99 -172 123 -260 157 -129 50 -340 116 -569 177 -583
156 -873 256 -1173 406 -65 33 -142 79 -171 101 -28 22 -160 94 -293 159 -341
166 -424 223 -507 348 -24 36 -56 77 -71 91 -64 59 -174 254 -217 385 -22 68
-23 78 -20 399 l3 329 36 64 c19 36 46 77 60 93 51 62 127 577 149 1021 l7
136 33 12 c45 16 127 109 163 184 35 74 68 187 77 268 l7 59 78 65 c86 72 124
126 138 201 5 27 21 74 34 104 42 94 68 217 74 342 5 99 2 130 -17 208 -31
124 -25 159 39 250 28 40 51 77 51 82 0 5 -16 22 -35 39 -46 41 -45 71 5 179
55 118 54 176 -7 238 -39 40 -44 69 -41 240 l3 167 -42 85 c-24 48 -73 122
-112 169 -78 93 -107 159 -97 220 5 34 2 41 -35 77 -23 21 -81 91 -129 154
-48 63 -104 131 -124 149 -20 19 -36 45 -36 57 0 28 -34 70 -72 90 -16 8 -74
24 -128 34 -148 28 -174 46 -210 143 -37 100 -82 137 -235 197 -44 17 -102 46
-130 64 -63 43 -93 51 -239 71 -124 17 -176 33 -211 64 -18 17 -44 20 -225 24
-113 4 -222 2 -242 -3z"/>
</g>
</svg>
